<?xml version="1.0" encoding="UTF-8"?>
<svg version="1.1"
     xmlns="http://www.w3.org/2000/svg"
     width="300pt" height="300pt"
     viewBox="0 0 300 300"
     preserveAspectRatio="xMidYMid meet">
  <defs>
    <!-- Define a linear gradient -->
    <linearGradient id="myGradient" x1="0%" y1="0%" x2="100%" y2="100%">
      <stop offset="0%" stop-color="red"/>
      <stop offset="100%" stop-color="blue"/>
    </linearGradient>
    <!-- This style applies to all paths (filling interiors) -->
    <style type="text/css">
      <![CDATA[
        .cls-1 { fill-rule:evenodd; fill:url(#myGradient); stroke:none; }
      ]]>
    </style>
  </defs>
  <!-- The transform converts the large coordinate system to the 300×300 viewBox -->
  <g transform="translate(0,300) scale(0.1,-0.1)">
<path class="cls-1"  d="M1161 2505 c-181 -41 -356 -131 -456 -234 -21 -23 -44 -41 -50 -41
-26 0 -118 -53 -159 -90 -117 -108 -136 -299 -42 -430 23 -33 34 -60 38 -96
10 -108 90 -220 203 -285 73 -42 80 -35 10 11 -124 83 -191 175 -202 282 -4
33 -16 66 -39 100 -44 65 -57 117 -52 203 5 79 29 134 84 194 31 35 125 91
152 91 6 0 40 25 74 56 173 155 390 241 587 232 79 -3 105 -9 147 -30 61 -32
113 -87 143 -153 49 -109 34 -99 151 -106 119 -7 223 -35 321 -84 60 -30 207
-145 257 -200 129 -141 218 -328 247 -521 40 -267 -8 -482 -158 -702 -55 -80
-170 -193 -253 -248 -89 -59 -222 -104 -371 -125 -80 -11 -98 -10 -192 9 -275
55 -438 216 -458 452 -4 47 -1 83 11 124 18 62 15 89 -5 40 -18 -45 -23 -179
-9 -243 17 -79 65 -163 128 -226 66 -67 132 -105 242 -140 196 -64 473 -23
654 95 206 135 356 346 418 592 18 72 20 102 15 238 -6 183 -25 270 -91 407
-81 167 -168 276 -300 374 -152 114 -273 159 -445 168 l-114 6 -12 42 c-30
101 -116 198 -203 228 -67 23 -194 28 -271 10z"/>
<path class="cls-1"  d="M1140 2451 c-93 0 -166 -52 -243 -97 -66 -39 -162 -110 -190 -142
-10 -11 -44 -30 -76 -42 -65 -24 -132 -83 -163 -144 -32 -62 -35 -157 -8 -228
12 -32 34 -70 49 -86 22 -21 28 -37 28 -68 0 -22 8 -65 18 -95 23 -71 115
-161 211 -209 38 -19 70 -35 72 -35 1 -1 -5 -16 -13 -33 -10 -19 -26 -33 -44
-37 -29 -6 -80 -53 -100 -92 -14 -27 -14 -68 -1 -94 10 -18 24 -19 290 -19
l279 0 -24 -36 c-73 -107 -63 -281 22 -412 47 -70 98 -112 191 -157 107 -52
193 -68 322 -62 166 8 312 61 440 160 199 153 331 394 355 652 7 80 -8 240
-31 330 -23 85 -119 276 -176 349 -58 72 -150 153 -195 173 -18 7 -33 17 -33
22 0 15 -98 66 -185 97 -71 26 -93 29 -202 29 l-122 0 -11 48 c-21 99 -75 174
-154 214 -68 35 -196 41 -306 14z m230 -42 c32 -7 65 -23 86 -42 38 -32 84
-113 84 -146 0 -13 18 -31 50 -52 28 -18 50 -36 50 -41 0 -14 -27 -9 -41 9
-26 30 -101 56 -164 57 -235 0 -360 -304 -199 -483 57 -64 127 -95 214 -95 69
0 105 13 171 65 22 17 39 41 42 59 7 33 23 40 31 13 7 -25 0 -58 -12 -56 -5 1
-12 -16 -15 -37 -19 -146 -186 -291 -367 -320 -87 -13 -316 -13 -382 1 -68 15
-171 67 -226 114 -43 38 -84 106 -96 160 l-7 30 51 -3 c51 -4 72 5 90 38 8 16
4 17 -36 12 -63 -7 -116 19 -154 76 -93 140 -20 334 129 344 28 2 45 -1 48 -9
3 -8 -4 -13 -19 -13 -12 -1 -43 -11 -68 -23 -108 -53 -118 -237 -17 -309 45
-32 124 -36 159 -9 72 57 61 284 -18 388 -28 37 -29 43 -8 43 9 0 41 23 72 51
85 77 255 156 384 178 76 12 110 12 168 0z m154 -283 c48 -20 107 -75 127
-121 26 -57 25 -154 -2 -207 -73 -143 -245 -171 -360 -58 -35 33 -51 59 -63
99 -20 67 -20 75 -1 137 38 126 182 199 299 150z m327 -15 c41 -11 106 -32
144 -48 83 -34 86 -46 26 -126 -37 -48 -151 -239 -151 -251 0 -4 13 -6 30 -6
25 0 33 7 51 43 31 61 161 248 176 254 18 7 125 -88 179 -158 24 -31 44 -60
44 -63 0 -3 -33 -24 -72 -48 -104 -61 -239 -161 -265 -197 -22 -29 -24 -30
-58 -16 -72 31 -197 5 -247 -51 -30 -35 -58 -108 -58 -156 0 -27 -4 -48 -10
-48 -16 0 -81 -62 -90 -86 -7 -17 -14 -20 -35 -17 -21 5 -24 9 -18 27 11 28
10 146 -1 168 -6 14 -2 20 17 27 68 26 153 133 187 236 19 58 24 96 27 219 3
159 -4 192 -57 266 -12 17 -18 34 -15 40 10 16 116 11 196 -9z m-1150 -61 c10
0 39 -53 39 -74 0 -8 -12 -28 -26 -45 -19 -23 -34 -31 -59 -31 -59 0 -96 76
-61 123 15 20 63 38 84 31 8 -2 18 -4 23 -4z m-72 -181 c20 -7 31 -18 31 -31
0 -10 5 -29 11 -40 6 -12 7 -24 2 -29 -12 -12 -93 67 -93 91 0 23 5 24 49 9z
m149 -11 c27 -27 -2 -78 -44 -78 -22 0 -44 25 -44 49 0 33 63 54 88 29z m1645
-236 c14 -31 37 -99 51 -150 26 -99 25 -102 -24 -100 -53 3 -350 -58 -367 -75
-9 -10 8 -47 21 -47 8 0 33 7 57 16 55 19 172 40 268 48 l74 6 -6 -108 c-7
-123 -47 -299 -65 -290 -212 109 -320 145 -401 132 -38 -6 -39 -5 -46 27 -4
19 -11 39 -15 44 -4 6 -12 30 -17 55 -7 39 -12 45 -33 45 -24 0 -25 -2 -22
-66 l3 -67 -123 -4 c-97 -3 -130 -1 -155 12 -18 8 -33 19 -33 23 0 5 13 22 29
38 36 35 77 38 115 8 35 -27 42 -19 25 28 -11 27 -22 39 -38 41 -22 4 -23 7
-18 58 7 70 37 117 91 143 53 26 81 26 151 0 38 -14 65 -33 87 -60 29 -36 63
-57 74 -46 9 9 -23 72 -49 98 l-26 26 37 35 c56 54 191 146 281 194 32 17 42
8 74 -64z m-974 -354 c0 -29 -3 -70 -7 -92 -6 -34 -11 -40 -52 -53 -25 -8 -50
-20 -57 -25 -11 -9 -323 -20 -323 -12 0 16 31 72 48 88 21 18 74 19 114 2 16
-7 17 -4 12 23 -10 49 22 77 96 85 32 4 78 13 102 20 68 22 68 22 67 -36z
m-272 24 c18 -12 -28 -65 -58 -67 -13 -1 -34 -4 -45 -8 -19 -7 -21 -4 -21 32
l0 40 46 4 c25 2 51 4 56 5 6 1 15 -2 22 -6z m-175 -16 c16 -1 28 -4 28 -8 0
-5 0 -14 0 -21 0 -8 -15 -34 -34 -58 -18 -24 -38 -57 -42 -72 l-9 -28 -113 -5
c-77 -3 -112 0 -112 7 0 39 69 99 115 99 21 0 75 -28 75 -39 0 -5 7 -11 14
-14 11 -4 13 -1 9 11 -9 23 -35 66 -46 73 -5 4 -6 21 -2 38 7 32 8 32 48 25
23 -4 54 -8 69 -8z m951 -194 c23 -53 22 -56 -13 -31 -22 17 -27 26 -19 35 6
7 8 18 4 24 -3 5 -2 10 2 10 5 0 17 -17 26 -38z m-367 -25 c72 -37 124 -124
124 -206 0 -45 -29 -109 -64 -141 -24 -22 -37 -25 -98 -25 -69 0 -71 1 -104
39 -44 51 -53 99 -28 145 37 70 103 79 146 20 15 -20 17 -30 9 -52 -13 -32
-45 -36 -61 -7 -14 27 -30 16 -30 -20 0 -23 7 -33 30 -45 38 -20 61 -13 95 26
40 48 35 92 -19 145 -37 37 -50 44 -83 44 -78 0 -153 -77 -153 -157 0 -47 18
-100 43 -125 14 -14 11 -20 -33 -66 l-49 -51 -38 76 c-64 130 -57 233 23 338
27 35 63 60 114 76 37 12 141 4 176 -14z m348 -64 c-16 -89 -38 -136 -84 -174
-25 -21 -62 -45 -83 -54 l-38 -16 17 26 c26 40 22 131 -9 199 l-26 56 115 0
115 0 -7 -37z m221 -8 c68 -17 186 -73 228 -107 l27 -23 -38 -63 c-38 -64
-157 -202 -173 -202 -5 0 -9 6 -9 13 0 20 -158 194 -199 219 -20 12 -37 22
-39 24 -6 4 43 139 53 146 17 12 87 9 150 -7z m-154 -244 c41 -38 93 -95 115
-128 l41 -60 -51 -29 c-47 -27 -181 -84 -197 -84 -4 0 -10 19 -14 43 -9 62
-34 135 -64 191 -25 47 -25 49 -7 60 11 6 36 26 55 43 20 18 39 33 42 33 3 0
39 -31 80 -69z m-213 -96 c28 -59 65 -194 57 -213 -3 -10 -32 -12 -117 -10
-106 3 -113 4 -111 23 1 11 4 57 6 103 l5 82 49 35 c64 45 82 42 111 -20z
m-305 -10 c20 -8 50 -15 67 -15 l31 0 -6 -82 c-9 -116 -5 -112 -72 -83 -65 29
-154 86 -150 97 4 12 81 97 88 98 4 0 23 -7 42 -15z"/>
<path class="cls-1"  d="M1205 2355 c-157 -31 -283 -89 -375 -175 -25 -22 -36 -37 -25 -31 11
5 31 20 45 33 13 13 32 28 42 33 9 6 43 25 74 44 100 58 201 83 341 85 75 1
116 4 106 10 -27 15 -135 16 -208 1z"/>
<path class="cls-1"  d="M956 2147 c-12 -9 -17 -23 -14 -42 3 -28 6 -30 51 -33 55 -4 77 9 77
44 0 39 -76 59 -114 31z m73 -43 c-10 -13 -44 -11 -59 3 -10 9 22 20 46 15 20
-3 22 -7 13 -18z"/>
<path class="cls-1"  d="M944 1976 c-10 -43 1 -56 49 -56 50 0 70 16 65 52 -3 20 -9 23 -55
26 -49 3 -53 1 -59 -22z m70 -2 c26 -10 18 -24 -14 -24 -30 0 -41 14 -17 23 6
3 13 6 14 6 1 1 8 -2 17 -5z"/>
<path class="cls-1"  d="M958 1839 c-21 -12 -24 -49 -6 -67 17 -17 74 -15 92 4 22 21 20 40
-6 58 -26 18 -55 20 -80 5z m60 -37 c2 -7 -7 -12 -22 -12 -27 0 -35 15 -13 23
17 7 30 3 35 -11z"/>
<path class="cls-1"  d="M687 1603 c-12 -11 -8 -43 6 -44 44 -3 703 3 706 7 2 2 -4 13 -14 24
-17 19 -30 20 -355 20 -185 0 -340 -3 -343 -7z"/>
<path class="cls-1"  d="M1355 2085 c-57 -22 -84 -52 -101 -114 -19 -65 -11 -105 36 -170 42
-57 84 -81 143 -81 151 0 238 152 160 278 -50 81 -153 119 -238 87z m75 -45
c26 -26 26 -80 -1 -114 -45 -58 -139 -19 -139 57 0 67 92 105 140 57z m89 -4
c51 -27"/>
<path class="cls-1"  d="M1700 2069 c0 -5 4 -9 9 -9 5 0 19 -21 32 -47 17 -37 24 -74 30 -163
l7 -115 -3 120 c-3 131 -23 210 -57 218 -10 3 -18 1 -18 -4z"/>
<path class="cls-1"  d="M1790 2058 c25 -6 83 -23 130 -38 46 -16 86 -27 88 -25 14 14 -191
76 -243 74 -11 -1 0 -6 25 -11z"/>
<path class="cls-1"  d="M2167 1868 c31 -29 71 -69 89 -88 19 -19 34 -30 34 -24 0 13 -155
164 -169 164 -5 0 16 -24 46 -52z"/>
<path class="cls-1"  d="M2070 1830 c-25 -25 -25 -35 0 -60 25 -25 42 -25 63 -2 29 32 20 59
-26 75 -11 4 -25 -1 -37 -13z m59 -14 c13 -16 6 -42 -14 -50 -21 -8 -57 26
-50 47 8 20 48 23 64 3z"/>
<path class="cls-1"  d="M1754 1625 c-7 -33 -10 -62 -9 -64 7 -6 26 81 23 102 -2 12 -8 -5
-14 -38z"/>
<path class="cls-1"  d="M2340 1637 c0 -7 4 -17 9 -22 12 -13 58 -132 66 -172 7 -33 25 -55
25 -30 0 36 -81 237 -95 237 -3 0 -5 -6 -5 -13z"/>
<path class="cls-1"  d="M1823 1395 c-41 -18 -73 -69 -72 -115 1 -19 3 -27 6 -17 2 9 9 14 15
11 6 -4 8 -2 4 4 -7 11 11 59 29 77 5 6 24 16 40 23 32 13 72 4 140 -32 38
-20 56 -20 30 0 -31 25 -118 64 -140 64 -11 -1 -35 -7 -52 -15z"/>
<path class="cls-1"  d="M2446 1230 c4 -36 8 -67 10 -69 9 -10 3 106 -6 119 -8 10 -9 -5 -4
-50z"/>
<path class="cls-1"  d="M1662 1138 c-19 -19 -14 -30 7 -18 11 5 35 10 53 10 25 0 29 3 18 10
-21 13 -64 12 -78 -2z"/>
<path class="cls-1"  d="M1378 1214 c-4 -3 -39 -12 -80 -20 l-73 -14 62 5 c57 4 149 32 112
34 -9 1 -18 -2 -21 -5z"/>
<path class="cls-1"  d="M1094 1140 c-32 -13 -43 -35 -13 -24 13 5 41 9 61 8 21 0 35 3 30 7
-13 13 -57 18 -78 9z"/>
<path class="cls-1"  d="M808 1148 c-16 -5 -28 -14 -28 -19 0 -5 12 -4 27 2 14 5 40 7 57 3
21 -4 28 -3 21 4 -17 16 -49 21 -77 10z"/>
<path class="cls-1"  d="M1405 1011 c-60 -28 -84 -53 -105 -115 -21 -57 -25 -146 -10 -181 6
-14 9 5 9 58 1 82 19 143 46 154 13 4 14 8 4 14 -8 4 -11 10 -9 12 3 2 27 18
54 35 37 24 52 29 62 21 15 -12 44 -5 44 11 0 16 -51 11 -95 -9z"/>
<path class="cls-1"  d="M1510 1025 c0 -2 20 -13 44 -23 88 -39 128 -137 88 -214 -11 -21 -16
-38 -10 -38 13 0 38 64 38 100 0 36 -23 96 -48 123 -27 30 -112 70 -112 52z"/>
<path class="cls-1"  d="M1459 870 l-24 -20 33 16 c18 9 42 14 53 11 10 -3 17 -1 13 4 -9 16
-51 10 -75 -11z"/>
<path class="cls-1"  d="M1795 960 c3 -14 8 -44 12 -67 3 -24 9 -43 14 -43 12 0 36 39 53 87
l14 41 -49 4 c-49 3 -50 2 -44 -22z"/>
<path class="cls-1"  d="M2022 908 c-25 -64 -24 -85 3 -45 20 32 35 82 26 95 -3 5 -17 -17
-29 -50z"/>
<path class="cls-1"  d="M2307 806 c-47 -55 -63 -83 -29 -53 20 18 86 107 80 107 -3 0 -25
-24 -51 -54z"/>
<path class="cls-1"  d="M1897 721 c-48 -37 -48 -52 2 -31 25 10 61 55 50 63 -2 2 -25 -12
-52 -32z"/>
<path class="cls-1"  d="M1701 628 c-28 -6 -40 -13 -33 -20 12 -12 78 0 93 18 14 17 6 17 -60
2z"/>
<path class="cls-1"  d="M714 1251 c-18 -11 -44 -36 -60 -56 -36 -47 -40 -130 -9 -166 39 -43
73 -50 268 -48 100 1 193 6 207 10 14 4 -54 8 -155 8 -99 0 -199 0 -222 1 -61
0 -103 38 -103 92 0 67 33 119 106 165 11 6 15 12 9 12 -5 1 -24 -8 -41 -18z"/>
  </g>
</svg>
