<svg xmlns="http://www.w3.org/2000/svg" width="698" height="98" viewBox="0 0 698 98" fill="none">
<g>
<path d="M0.299993 48.2C0.299993 32.4 11.3 21 26.4 21C38.3 21 48.3 28.6 50.4 39.1L44.6 39.9C42.6 32 35 26.4 26.5 26.4C14.8 26.4 6.1 35.5 6.1 48.2C6.1 60.8 14.8 69.9 26.4 69.9C35.1 69.9 42.6 64.5 44.7 56.9L50.5 57.8C48.1 68 38 75.3 26.4 75.3C11.2 75.3 0.199993 63.9 0.299993 48.2Z" fill="#ffffff"></path>
<path d="M57 61.6C57 53.1 63.9 47.1 78.8 44.9L94.1 42.6V40.2C94.1 32.3 88.4 27 79.7 27C71.3 27 65.4 31.7 65.5 38.8H59.6C59.6 28.5 67.8 21.5 79.8 21.5C91.9 21.5 100 29.1 100 40.3V73.3H94.1V64.8H93.3C89.7 71.5 82.8 75.1 74.3 75.1C63.8 75.1 57 69.8 57 61.6ZM94.1 53V47.8L79.2 50C67.4 51.9 62.8 56 62.8 61.5C62.8 66.8 67.5 70 75 70C86.5 70 94.1 62.7 94.1 53Z" fill="#ffffff"></path>
<path d="M113.1 0H118.9V73.3H113.1V0Z" fill="#ffffff"></path>
<path d="M133 0H138.8V73.3H133V0Z" fill="#ffffff"></path>
<path d="M151.9 8.20001C151.9 5.50001 153.8 3.60001 156.5 3.60001C159.2 3.60001 161.1 5.50001 161.1 8.20001C161.1 10.9 159.2 12.8 156.5 12.8C153.8 12.8 151.9 10.9 151.9 8.20001ZM153.6 23H159.5V73.3H153.6V23Z" fill="#ffffff"></path>
<path d="M171 80.3L177 78.4C178.9 87.1 186.8 92.9 197.2 92.9C209 92.9 217.1 84.8 217.1 72.8V63.6H216.3C212 70.6 205.1 74.9 196.1 74.9C180.9 74.9 170 63.7 170 48.2C170 32.5 180.9 21.1 196.1 21.1C205.3 21.1 212.2 25.5 216.4 32.6H217.2V23H223V72.8C223 88 212.4 98.3 197 98.3C183.8 98.3 173.5 91.1 171 80.3ZM217.3 48.2C217.3 35.6 208.5 26.4 196.6 26.4C184.5 26.4 175.8 35.6 175.8 48.2C175.8 60.5 184.7 69.6 196.6 69.6C208.6 69.6 217.3 60.5 217.3 48.2Z" fill="#ffffff"></path>
<path d="M236.9 23H242.7V31H243.5C245.8 25.6 250.9 22 257 22C259.5 22 262.1 22.6 263.9 23.5V29.3C261.4 28 258.6 27.4 256.3 27.4C248.2 27.4 242.8 34.8 242.8 45.7V73.3H236.9V23Z" fill="#ffffff"></path>
<path d="M267.3 61.6C267.3 53.1 274.2 47.1 289.1 44.9L304.4 42.6V40.2C304.4 32.3 298.7 27 290 27C281.6 27 275.7 31.7 275.8 38.8H269.9C269.9 28.5 278.1 21.5 290.1 21.5C302.2 21.5 310.3 29.1 310.3 40.3V73.3H304.4V64.8H303.6C300 71.5 293.1 75.1 284.6 75.1C274.1 75.1 267.3 69.8 267.3 61.6ZM304.4 53V47.8L289.5 50C277.7 51.9 273.1 56 273.1 61.5C273.1 66.8 277.8 70 285.3 70C296.8 70 304.4 62.7 304.4 53Z" fill="#ffffff"></path>
<path d="M376.4 48.2C376.4 63.9 365.3 75.3 350.4 75.3C341.1 75.3 333.8 70.8 330.1 63.4H329.3V96.3H323.4V23H329.3V33H330.1C333.8 25.6 341 21 350.3 21C365.3 21 376.4 32.4 376.4 48.2ZM329.1 48.2C329.1 60.5 337.9 69.9 349.9 69.9C361.8 69.9 370.6 60.5 370.6 48.2C370.6 35.7 361.8 26.4 349.9 26.4C337.9 26.4 329.1 35.8 329.1 48.2Z" fill="#ffffff"></path>
<path d="M386.7 0H392.6V31H393.4C396.8 24.9 403.1 21 410.7 21C423.4 21 431.4 30.5 431.4 43.6V73.3H425.6V43.6C425.6 33.6 419.7 26.4 410 26.4C400.5 26.4 392.6 33.7 392.6 43.6V73.3H386.7V0Z" fill="#ffffff"></path>
<path d="M439.2 94.2V88.9C441.3 89.6 443.7 90.1 445.5 90.1C452.9 90.1 455.7 82.3 459.6 73L436.5 23H442.7L462.1 65.2H462.9L479.6 23H485.8L465.4 73.7C460.5 85.9 456.2 95.5 446.2 95.5C443.9 95.5 441.1 95 439.2 94.2Z" fill="#ffffff"></path>
<path d="M513.1 48.2C513.1 32.4 524.1 21 539.2 21C551.1 21 561.1 28.6 563.2 39.1L557.4 39.9C555.4 32 547.8 26.4 539.3 26.4C527.6 26.4 518.9 35.5 518.9 48.2C518.9 60.8 527.6 69.9 539.2 69.9C547.9 69.9 555.4 64.5 557.5 56.9L563.3 57.8C560.9 68 550.8 75.3 539.2 75.3C524 75.3 513 63.9 513.1 48.2Z" fill="#ffffff"></path>
<path d="M617.8 73.3H611.9V65.1H611.1C607.7 71.3 601.4 75.2 593.9 75.2C581.1 75.2 573.1 65.7 573.1 52.6V23H578.9V52.6C578.9 62.6 584.8 69.8 594.6 69.8C604 69.8 611.9 62.5 611.9 52.7V23H617.8V73.3Z" fill="#ffffff"></path>
<path d="M635.7 61.2V28H627.1V23H635.7L636.7 7.29999H641.6V23H655V28H641.6V61C641.6 66.1 644.6 69.6 649.5 69.6C651.3 69.6 653.9 69.2 655.9 68.6V73.6C653.8 74.3 650.8 74.8 648.3 74.8C640.7 74.8 635.7 69.4 635.7 61.2Z" fill="#ffffff"></path>
<path d="M666 38.2C666 29.2 672.6 22.4 681.9 22.4C691.2 22.4 697.8 29 697.8 38.2C697.8 47.4 691.2 54 681.9 54C672.6 54 666 47.4 666 38.2ZM695.9 38.2C695.9 30.2 690.1 24.2 681.9 24.2C673.7 24.2 667.9 30.2 667.9 38.2C667.9 46.3 673.7 52.2 681.9 52.2C690 52.2 695.9 46.3 695.9 38.2ZM675.5 28.2H683.5C687.3 28.2 690.1 30.7 690.1 34.1C690.1 37.5 687.3 39.9 683.5 39.9H683.4L690 47.9H687.6L681.2 40H677.6V47.9H675.7V28.2H675.5ZM683.2 38.2C686 38.2 688.1 36.5 688.1 34C688.1 31.6 686 29.9 683.2 29.9H677.4V38.2H683.2Z" fill="#ffffff"></path>
</g>
</svg>
