<svg width="253" height="83" viewBox="0 0 253 83" fill="none" xmlns="http://www.w3.org/2000/svg">
<path fill-rule="evenodd" clip-rule="evenodd" d="M20.5778 23.9889C21.0866 23.8005 21.6283 23.7133 22.1712 23.732C22.7131 23.7151 23.2535 23.803 23.7613 23.991C24.2784 24.1825 24.7516 24.4742 25.152 24.8496L25.1616 24.8586L25.1709 24.8679C25.5578 25.257 25.8608 25.7194 26.0604 26.2278C26.2263 26.6503 26.3178 27.0968 26.3314 27.5483C26.8489 27.1388 27.3958 26.7648 27.9683 26.4293L27.9715 26.4275C30.3917 25.0253 33.1644 24.3067 35.9789 24.3504C38.7132 24.3019 41.4117 24.9699 43.7906 26.2858L43.7962 26.289C45.3381 27.1591 46.6777 28.3268 47.7341 29.7177C48.9218 28.3839 50.3454 27.2649 51.9393 26.4147L51.9418 26.4134C54.5895 25.0134 57.5637 24.3032 60.5754 24.3504C63.3104 24.2993 66.0099 24.9676 68.3881 26.2862L68.397 26.2912C70.7003 27.6098 72.56 29.5553 73.7442 31.8913L73.7495 31.9021C75.0664 34.6063 75.7043 37.5765 75.6098 40.5683V60.8062C75.6221 61.3398 75.5265 61.87 75.3288 62.3667C75.1299 62.8665 74.8319 63.3218 74.4529 63.707L74.445 63.7149C73.8589 64.2932 73.111 64.6859 72.2984 64.8463C71.4858 65.0066 70.6423 64.9279 69.8749 64.6195C69.1073 64.311 68.4484 63.7856 67.9851 63.1072C67.5222 62.4294 67.2765 61.6306 67.282 60.813V40.5563C67.282 37.6289 66.5172 35.499 65.0943 34.0483C64.3634 33.3121 63.4792 32.7328 62.4989 32.3497C61.518 31.9663 60.4639 31.7882 59.406 31.8278L59.3809 31.8288L59.3557 31.828C58.2284 31.7945 57.1073 31.9963 56.0683 32.419C55.0308 32.8411 54.1003 33.4734 53.3383 34.2719C51.7204 36.0165 50.8737 38.3024 50.9728 40.6397L50.9735 40.6555V60.8052C51.0012 61.8762 50.5999 62.9121 49.8603 63.6958L49.8506 63.7059C49.4633 64.1013 48.9944 64.4101 48.4764 64.6126C47.9669 64.8119 47.4207 64.9041 46.8732 64.884C46.3295 64.896 45.7884 64.8008 45.2825 64.6035C44.7682 64.4029 44.3005 64.1008 43.9093 63.715L43.9045 63.7102C43.5221 63.3261 43.2212 62.8707 43.0205 62.3699C42.8211 61.8724 42.7249 61.3407 42.7379 60.8058V40.5563C42.7379 37.6288 41.9751 35.4987 40.5566 34.0481C39.8224 33.3096 38.9342 32.7291 37.9498 32.3459C36.9644 31.9623 35.9058 31.7856 34.8438 31.8278L34.8196 31.8287L34.7953 31.8281C33.6695 31.7999 32.5507 32.0014 31.5115 32.4192C30.4727 32.8368 29.5373 33.4608 28.7652 34.2496C27.9531 35.0857 27.3215 36.0692 26.9061 37.1421C26.4906 38.2154 26.2994 39.3574 26.3432 40.5021L26.3437 40.5164V60.8063C26.3561 61.3398 26.2604 61.87 26.0627 62.3667C25.8638 62.8665 25.5658 63.3218 25.1869 63.707L25.1791 63.7148C24.7841 64.1046 24.3112 64.409 23.791 64.6097C23.2797 64.8069 22.7331 64.9001 22.1845 64.8841C21.6333 64.9023 21.0836 64.8101 20.5694 64.6128C20.0463 64.412 19.5707 64.1065 19.1739 63.7147L19.1694 63.7102C18.787 63.3261 18.4861 62.8707 18.2854 62.3699C18.086 61.8724 17.9898 61.3407 18.0028 60.8058V27.8092C17.9824 27.2681 18.0749 26.729 18.2744 26.2246C18.4759 25.7151 18.7818 25.2526 19.1723 24.8647L19.1791 24.8579L19.186 24.8513C19.5859 24.4738 20.0597 24.1808 20.5778 23.9889Z" fill="#E02D9F"/>
<path fill-rule="evenodd" clip-rule="evenodd" d="M104.451 24.3096C100.805 24.3062 97.2192 25.2299 94.0516 26.9903C90.8839 28.7507 88.2432 31.2872 86.3943 34.3497L86.3895 34.358C84.5269 37.5338 83.5806 41.1407 83.6522 44.7978C83.5962 48.4117 84.4772 51.9802 86.2128 55.1748L86.2136 55.1763C87.844 58.1606 90.2691 60.6614 93.2325 62.4192L93.2344 62.4204C96.2621 64.2039 99.7426 65.1254 103.28 65.0821C106.783 65.1466 110.235 64.2468 113.237 62.4849L113.242 62.4821C114.596 61.6741 115.839 60.7054 116.942 59.5999L116.942 61.0747L116.942 61.0866C116.955 61.8956 117.211 62.6812 117.677 63.3466C118.143 64.0118 118.796 64.527 119.555 64.8319C120.313 65.1367 121.146 65.2189 121.951 65.0694C122.755 64.9198 123.5 64.5444 124.093 63.9861L124.103 63.9764L124.113 63.9663C124.492 63.5811 124.79 63.1258 124.989 62.6261C125.187 62.1293 125.282 61.5991 125.27 61.0656V44.8602C125.331 41.1889 124.371 37.5709 122.492 34.3881L122.489 34.383C120.646 31.317 118.01 28.7756 114.846 27.0094C111.682 25.2432 108.098 24.3129 104.451 24.3096ZM93.3394 38.1035C94.414 36.1961 95.996 34.5999 97.9239 33.4824C99.9123 32.3686 102.169 31.7815 104.468 31.7815C106.764 31.7815 109.019 32.3677 111.007 33.4798C112.904 34.6162 114.462 36.21 115.53 38.1031C116.67 40.146 117.249 42.438 117.212 44.7587L117.212 44.7713L117.212 44.7838C117.253 47.0956 116.674 49.3791 115.531 51.4106C114.461 53.2965 112.902 54.8823 111.007 56.0104C109.022 57.1287 106.766 57.7186 104.468 57.7186C102.168 57.7186 99.9106 57.128 97.9245 56.0081C95.995 54.8924 94.4123 53.2956 93.3394 51.3867L93.3386 51.3853C92.1955 49.3622 91.6144 47.0869 91.6508 44.7825L91.651 44.7704L91.6508 44.7583C91.6125 42.437 92.1937 40.1444 93.3394 38.1035Z" fill="#E02D9F"/>
<path fill-rule="evenodd" clip-rule="evenodd" d="M137.886 24.9048C137.379 24.7406 136.844 24.6736 136.312 24.7071C135.782 24.6805 135.252 24.7547 134.751 24.9261C134.233 25.103 133.756 25.3802 133.349 25.742L133.324 25.7644L133.301 25.7889C132.929 26.185 132.641 26.6511 132.457 27.1599C132.275 27.6607 132.197 28.1921 132.228 28.723V60.7878C132.191 61.3253 132.265 61.8645 132.446 62.3729C132.631 62.8909 132.923 63.365 133.302 63.7665L133.331 63.7972L133.364 63.8245C134.182 64.5149 135.239 64.8674 136.312 64.8146C136.851 64.8467 137.392 64.7744 137.902 64.6012C138.429 64.4228 138.913 64.1408 139.325 63.7716L139.355 63.7448L139.382 63.715C140.105 62.9129 140.476 61.8628 140.411 60.7914V41.0348L140.411 41.0217C140.347 39.183 141.014 37.1813 142.242 35.8232C142.937 35.1143 143.984 34.3146 145.124 33.6309C146.274 32.9416 147.459 32.4052 148.415 32.1868C150.536 31.7018 152.431 31.6336 155.194 31.9885C155.914 32.0811 156.53 32.0398 157.115 32.0005L157.228 31.993C157.762 31.9584 158.506 31.9001 159.132 31.4045L159.146 31.3936L159.16 31.3821C159.724 30.8911 160.124 30.2425 160.304 29.5205L160.306 29.5094C160.5 28.6745 160.449 27.9425 160.044 27.2852C159.671 26.6794 159.05 26.2336 158.366 25.8171C156.809 24.8701 154.589 24.7086 151.947 24.7085C149.612 24.6904 147.146 24.7456 144.858 25.7738C143.22 26.51 141.719 27.5 140.413 28.7019C140.448 28.1792 140.377 27.655 140.207 27.1587C140.029 26.6438 139.748 26.1702 139.38 25.7657L139.348 25.7307L139.312 25.6999C138.895 25.3443 138.41 25.0743 137.886 24.9048Z" fill="#E02D9F"/>
<path fill-rule="evenodd" clip-rule="evenodd" d="M177.759 12.6833C177.248 12.4933 176.704 12.4052 176.158 12.4238C175.625 12.4102 175.094 12.5013 174.597 12.6923C174.091 12.8866 173.63 13.1804 173.243 13.5566C172.856 13.9329 172.552 14.3836 172.35 14.8815C172.151 15.3751 172.056 15.9037 172.073 16.435V24.9335H169.057C168.049 24.8973 167.061 25.2398 166.301 25.8956L166.292 25.9036L166.283 25.9118C165.91 26.2556 165.616 26.675 165.422 27.1421C165.22 27.6296 165.145 28.3006 165.165 28.7701C165.166 29.2342 165.266 29.6925 165.459 30.1155C165.654 30.543 165.939 30.9239 166.295 31.2341C166.67 31.5691 167.109 31.8274 167.586 31.9952C168.058 32.1615 168.559 32.2359 169.059 32.2146H172.073V50.3523C172.022 52.9268 172.64 55.4714 173.869 57.7502L173.87 57.7524C175.018 59.8624 176.718 61.6378 178.795 62.9011C180.905 64.1843 183.349 64.8477 185.834 64.8136H187.199C188.379 64.8531 189.535 64.4672 190.444 63.7252C190.881 63.3719 191.233 62.926 191.47 62.4195C191.705 61.92 191.823 61.3752 191.814 60.8246C191.856 59.7773 191.49 58.7561 190.794 57.9644C190.469 57.5869 190.063 57.2863 189.607 57.083C189.151 56.8799 188.655 56.7786 188.155 56.7857L185.829 56.7856L185.817 56.7858C185.072 56.7981 184.335 56.6438 183.663 56.3359C182.991 56.0279 182.404 55.575 181.944 55.0138L181.937 55.0056C180.841 53.7066 180.272 52.0693 180.328 50.3982L180.329 50.3855V32.1954H186.402C186.905 32.2124 187.406 32.1336 187.879 31.9632C188.355 31.7918 188.792 31.5306 189.166 31.1935C189.519 30.8827 189.803 30.5016 189.996 30.0744C190.188 29.6521 190.287 29.1949 190.286 28.7321C190.307 28.2625 190.233 27.5928 190.034 27.1061C189.842 26.6387 189.549 26.2188 189.176 25.8745L189.166 25.8649L189.155 25.8557C188.394 25.2034 187.409 24.8618 186.402 24.8952H180.329V16.4341C180.345 15.9035 180.25 15.3758 180.051 14.8829C179.85 14.386 179.547 13.9356 179.162 13.5589L179.153 13.5505C178.753 13.1711 178.278 12.8764 177.759 12.6833Z" fill="#E02D9F"/>
<path fill-rule="evenodd" clip-rule="evenodd" d="M216.198 24.3096C212.551 24.3062 208.965 25.2299 205.798 26.9903C202.63 28.7507 199.989 31.2872 198.14 34.3497L198.136 34.3579C196.273 37.5335 195.327 41.1399 195.398 44.7966C195.331 48.4085 196.203 51.9776 197.932 55.1736L197.934 55.1771C199.571 58.1654 202.006 60.667 204.981 62.4203C208.016 64.2087 211.507 65.1304 215.054 65.0821C218.552 65.1389 221.996 64.2346 224.99 62.4716L224.994 62.4693C226.348 61.6613 227.591 60.6926 228.695 59.5871V61.0208C228.687 61.5569 228.789 62.0886 228.996 62.5846C229.203 63.0825 229.51 63.5335 229.898 63.9116C230.286 64.2897 230.746 64.5873 231.252 64.7879C231.752 64.9862 232.287 65.0861 232.826 65.0821C233.378 65.0997 233.929 65.0065 234.443 64.808C234.964 64.6073 235.437 64.303 235.832 63.9132L235.839 63.9053C236.218 63.5201 236.516 63.0649 236.715 62.5651C236.913 62.0683 237.008 61.5381 236.996 61.0046V44.8348C237.059 41.1744 236.106 37.5663 234.239 34.3894L234.235 34.383C232.392 31.317 229.756 28.7756 226.592 27.0094C223.428 25.2432 219.844 24.3129 216.198 24.3096ZM216.202 31.7835C218.506 31.7375 220.775 32.3251 222.747 33.4764C224.647 34.613 226.207 36.2081 227.276 38.1031C228.416 40.146 228.995 42.438 228.958 44.7587L228.958 44.7713L228.958 44.7838C228.999 47.0956 228.42 49.3791 227.277 51.4106C226.206 53.2981 224.646 54.885 222.748 56.0133C220.776 57.167 218.507 57.7568 216.202 57.713L216.19 57.7128L216.179 57.7129C213.896 57.7376 211.652 57.1479 209.695 56.0109L209.694 56.0104C207.765 54.8925 206.181 53.2951 205.105 51.3864C203.966 49.3617 203.387 47.0866 203.423 44.7824L203.423 44.7706L203.423 44.7587C203.386 42.438 203.965 40.146 205.105 38.1031C206.183 36.1957 207.766 34.599 209.695 33.4795C211.652 32.3444 213.896 31.7568 216.179 31.7836L216.19 31.7838L216.202 31.7835Z" fill="#E02D9F"/>
</svg>
